#!OML:ASF I:\Actors\actors\Patient Classification 2\Patient 1\Session 1\actor1.ASF
:FULLY-SPECIFIED
:DEGREES
608
root -0.920484 18.4936 6.39075 -9.41674 35.2026 -7.27307
lowerback 10.2641 6.65631 8.99334
upperback 0.0818061 9.93461 0.184336
thorax -4.14176 4.74329 -6.01084
lowerneck -3.88507 -19.315 -14.933
upperneck -3.83458 -26.3617 29.566
head 5.80176 -12.6187 8.68695
rclavicle 6.61891e-014 1.98785e-015
rhumerus 93.5066 30.1438 -22.9114
rradius 92.3613
rwrist 15.7345
rhand -17.7664 -0.0645635
rfingers 7.12502
rthumb 8.49573 -29.8737
lclavicle 6.61891e-014 1.98785e-015
lhumerus -36.1284 -46.7043 83.1287
lradius 80.7445
lwrist 18.2288
lhand 1.65748 -16.6617
lfingers 7.12502
lthumb 27.177 11.4012
rfemur 26.6769 -31.79 12.6962
rtibia -1.11319e-014
rfoot -18.7767 -5.31438
rtoes -6.95614
lfemur -10.3719 -18.9437 -8.33048
ltibia 31.725
lfoot -17.1628 -8.87835
ltoes -58.7128
609
root -0.934763 18.488 6.40931 -9.865 36.6198 -7.58375
lowerback 9.97645 6.7612 9.29427
upperback -0.14123 10.0962 0.254015
thorax -4.15613 4.80954 -6.08683
lowerneck -3.89028 -19.0408 -15.1557
upperneck -2.93014 -26.0943 28.7779
head 5.90333 -12.4487 8.52634
rclavicle 1.89322e-013 4.77083e-015
rhumerus 95.6828 31.9529 -23.5994
rradius 95.647
rwrist 14.6435
rhand -19.8568 1.18129
rfingers 7.12502
rthumb 6.4781 -28.6996
lclavicle 1.89322e-013 4.77083e-015
lhumerus -35.3549 -47.6531 83.4234
lradius 80.4366
lwrist 17.3896
lhand 4.9955 -16.0751
lfingers 7.12502
lthumb 30.3657 11.4454
rfemur 27.4332 -33.1372 12.3054
rtibia -7.31528e-014
rfoot -18.5297 -5.20421
rtoes -6.27552
lfemur -10.6061 -19.3972 -8.12697
ltibia 31.7638
lfoot -16.8184 -9.92776
ltoes -58.6055
610
root -0.945249 18.4833 6.42508 -10.3505 37.7163 -7.99279
lowerback 9.38595 6.82911 9.25223
upperback -0.305686 10.1492 0.632898
thorax -4.07121 4.83993 -5.60499
lowerneck -3.84621 -18.5685 -15.5741
upperneck -1.76049 -25.5416 27.4512
head 5.95182 -12.1565 8.29072
rclavicle -3.29361e-014 1.31198e-014
rhumerus 97.1857 33.769 -23.6919
rradius 99.4695
rwrist 10.5401
rhand -22.5902 1.07006
rfingers 7.12502
rthumb 3.83885 -28.8751
lclavicle -3.29361e-014 1.31198e-014
lhumerus -34.7943 -47.6579 84.2041
lradius 80.098
lwrist 16.115
lhand 8.32864 -15.9751
lfingers 7.12502
lthumb 33.5394 10.9098
rfemur 28.074 -34.1924 12.0757
rtibia 5.40694e-014
rfoot -18.2333 -5.20625
rtoes -5.90294
lfemur -10.7305 -19.7894 -7.83968
ltibia 31.7465
lfoot -16.5284 -10.7731
ltoes -58.4692
611
root -0.950741 18.4789 6.43825 -10.871 38.4328 -8.31473
lowerback 9.22799 7.00798 9.87477
upperback -0.696076 10.4518 0.428396
thorax -4.20638 4.95283 -6.17209
lowerneck -3.44068 -18.3267 -15.8663
upperneck -0.620103 -25.3922 26.5414
head 6.07716 -12.0828 8.10794
rclavicle 1.55735e-013 1.39149e-014
rhumerus 96.0771 35.5878 -24.9381
rradius 103.641
rwrist 7.31715
rhand -24.4445 1.48067
rfingers 7.12502
rthumb 2.04804 -28.4892
lclavicle 1.55735e-013 1.39149e-014
lhumerus -34.6437 -48.1668 84.6498
lradius 79.9802
lwrist 14.8207
lhand 11.3939 -16.1829
lfingers 7.12502
lthumb 36.4472 10.0225
rfemur 28.7055 -34.861 11.8243
rtibia -2.8625e-014
rfoot -17.9 -5.35396
rtoes -6.0015
lfemur -10.5572 -20.2949 -7.69203
ltibia 31.6572
lfoot -16.4061 -11.0936
ltoes -58.4519
612
root -0.9554 18.4776 6.44685 -11.2679 38.8694 -8.368
lowerback 8.84909 7.44273 10.04
upperback -0.923496 11.0025 0.125426
thorax -4.05418 5.22278 -6.56027
lowerneck -2.97473 -18.5878 -14.269
upperneck 0.226324 -25.7432 23.9476
head 5.67319 -12.3141 7.10574
rclavicle -2.83765e-014 -7.95139e-015
rhumerus 93.6232 36.9626 -27.1777
rradius 107.357
rwrist 5.59162
rhand -25.5701 2.24577
rfingers 7.12502
rthumb 0.960952 -27.7318
lclavicle -2.83765e-014 -7.95139e-015
lhumerus -34.1201 -48.8902 84.832
lradius 79.8557
lwrist 13.7553
lhand 13.8259 -16.5885
lfingers 7.12502
lthumb 38.7454 9.00396
rfemur 29.2792 -35.2235 11.4422
rtibia -9.54166e-015
rfoot -17.5498 -5.62056
rtoes -6.58394
lfemur -10.1702 -20.7905 -7.81839
ltibia 31.4944
lfoot -16.2958 -11.0426
ltoes -58.525
613
root -0.963128 18.4803 6.4525 -11.4986 39.1148 -8.24196
lowerback 8.25711 7.64276 9.64173
upperback -1.01648 11.1724 0.245124
thorax -3.88974 5.32602 -6.15038
lowerneck -2.29074 -18.514 -14.2839
upperneck 1.05611 -25.7375 22.7306
head 5.61405 -12.3618 6.80566
rclavicle -7.69545e-014 -7.95139e-015
rhumerus 91.5226 39.2002 -28.4336
rradius 110.565
rwrist 5.06473
rhand -29.1421 2.66175
rfingers 7.12502
rthumb -2.48899 -27.3035
lclavicle -7.69545e-014 -7.95139e-015
lhumerus -33.7942 -48.1812 85.2872
lradius 79.7281
lwrist 13.244
lhand 15.1749 -16.8498
lfingers 7.12502
lthumb 40.0162 8.37133
rfemur 29.7005 -35.3961 11.0609
rtibia 3.49861e-014
rfoot -17.308 -5.90696
rtoes -6.80779
lfemur -9.75315 -21.0529 -8.0588
ltibia 31.2739
lfoot -16.0826 -11.0076
ltoes -58.5526
614
root -0.976341 18.4839 6.4553 -11.6726 39.1855 -8.03152
lowerback 7.7547 7.6638 9.11103
upperback -1.07719 11.107 0.419528
thorax -3.81581 5.31072 -5.61895
lowerneck -1.60248 -18.3357 -15.2143
upperneck 1.79078 -25.6871 22.7557
head 5.84034 -12.3623 6.97902
rclavicle 1.28713e-014 1.15295e-014
rhumerus 89.1125 41.3042 -29.8152
rradius 113.503
rwrist 4.11633
rhand -33.6553 1.20634
rfingers 7.12502
rthumb -6.8468 -28.6629
lclavicle 1.28713e-014 1.15295e-014
lhumerus -34.6531 -46.1923 86.4168
lradius 79.929
lwrist 12.5887
lhand 15.3055 -17.0827
lfingers 7.12502
lthumb 40.1392 8.10126
rfemur 30.0371 -35.4035 10.7206
rtibia -4.77083e-014
rfoot -17.2215 -6.14659
rtoes -5.94805
lfemur -9.29956 -21.1052 -8.32407
ltibia 31.0185
lfoot -15.8914 -11.0492
ltoes -58.5259
